<?xml version="1.0" encoding="UTF-8"?>
<!DOCTYPE svg PUBLIC "-//W3C//DTD SVG 1.1//EN" "http://www.w3.org/Graphics/SVG/1.1/DTD/svg11.dtd">
<svg xmlns="http://www.w3.org/2000/svg" version="1.1" width="128px" height="96px" style="shape-rendering:geometricPrecision; text-rendering:geometricPrecision; image-rendering:optimizeQuality; fill-rule:evenodd; clip-rule:evenodd" xmlns:xlink="http://www.w3.org/1999/xlink">
<g><path style="opacity:0.004" fill="#fefffe" d="M 23.5,-0.5 C 24.1667,-0.5 24.8333,-0.5 25.5,-0.5C 24.8333,2.16667 24.1667,2.16667 23.5,-0.5 Z"/></g>
<g><path style="opacity:0.352" fill="#fefffe" d="M 93.5,-0.5 C 95.1667,-0.5 96.8333,-0.5 98.5,-0.5C 98.9567,1.55672 99.9567,1.55672 101.5,-0.5C 102.167,-0.5 102.833,-0.5 103.5,-0.5C 102.587,1.08609 102.587,2.58609 103.5,4C 106.202,4.6066 108.868,4.43993 111.5,3.5C 113.116,4.11524 114.449,5.11524 115.5,6.5C 111.626,8.00247 111.959,8.66913 116.5,8.5C 115.857,12.4006 116.857,15.734 119.5,18.5C 118.478,19.354 117.645,20.354 117,21.5C 116.502,24.8168 116.335,28.1501 116.5,31.5C 118.821,31.7711 120.821,31.1045 122.5,29.5C 123.842,31.0049 125.508,31.6715 127.5,31.5C 127.5,34.8333 127.5,38.1667 127.5,41.5C 124.553,40.3559 121.887,38.6893 119.5,36.5C 120.167,35.8333 120.833,35.1667 121.5,34.5C 119.955,33.5481 118.288,33.2148 116.5,33.5C 116.333,47.1707 116.5,60.8374 117,74.5C 118.826,73.1587 119.993,73.6587 120.5,76C 120.18,77.6532 119.18,78.6532 117.5,79C 118.308,79.3076 118.975,79.8076 119.5,80.5C 118.258,82.7328 116.924,84.8995 115.5,87C 113.363,85.8824 111.03,84.7157 108.5,83.5C 107.651,86.5061 105.817,87.5061 103,86.5C 99.6997,89.2686 98.533,88.6019 99.5,84.5C 97.6351,83.3338 95.9684,83.6671 94.5,85.5C 97.975,87.0842 98.3083,89.0842 95.5,91.5C 93.8333,92.5 92.5,93.8333 91.5,95.5C 90.8333,95.5 90.1667,95.5 89.5,95.5C 84.2207,95.1069 79.0541,94.1069 74,92.5C 67.1677,92.8223 60.6677,93.8223 54.5,95.5C 53.1667,95.5 51.8333,95.5 50.5,95.5C 50.1667,94.1667 49.8333,94.1667 49.5,95.5C 48.8333,95.5 48.1667,95.5 47.5,95.5C 46.8783,94.3734 46.045,93.3734 45,92.5C 40.2836,94.1019 35.4503,95.1019 30.5,95.5C 29.1667,95.5 27.8333,95.5 26.5,95.5C 22.6659,92.6938 21.9993,89.3605 24.5,85.5C 23.7579,84.7132 22.9246,84.0465 22,83.5C 17.8643,84.8085 13.6976,84.8085 9.5,83.5C 6.83333,84.5 6.83333,85.5 9.5,86.5C 7.15948,87.7115 4.99281,87.3782 3,85.5C 2.38277,84.5509 2.54943,83.7175 3.5,83C 2.1807,82.805 0.847364,82.9717 -0.5,83.5C -0.5,82.8333 -0.5,82.1667 -0.5,81.5C 0.833333,80.8333 0.833333,80.1667 -0.5,79.5C -0.5,78.8333 -0.5,78.1667 -0.5,77.5C 0.495904,77.4142 1.32924,77.7476 2,78.5C 2.66667,57.5 2.66667,36.5 2,15.5C 1.32924,16.2524 0.495904,16.5858 -0.5,16.5C -0.5,14.5 -0.5,12.5 -0.5,10.5C 0.238911,10.631 0.905578,10.4643 1.5,10C 0.288912,8.88686 0.288912,7.7202 1.5,6.5C 7.73842,2.95269 14.0718,2.61936 20.5,5.5C 23.019,4.98699 25.019,3.65365 26.5,1.5C 37.5,1.16667 48.5,0.833333 59.5,0.5C 71.3225,0.541901 82.9892,1.20857 94.5,2.5C 93.8902,1.60895 93.5569,0.608953 93.5,-0.5 Z M 94.5,2.5 C 96.0858,3.14814 97.7525,3.64814 99.5,4C 97.19,5.87951 95.5233,5.37951 94.5,2.5 Z M 73.5,39.5 C 72.0014,40.6782 71.0014,42.3449 70.5,44.5C 69.8333,43.5 69.1667,42.5 68.5,41.5C 68.1667,42.1667 67.8333,42.8333 67.5,43.5C 68.5983,45.7751 69.9317,47.9417 71.5,50C 67.5138,50.4988 63.5138,50.6655 59.5,50.5C 60.0893,48.6023 60.256,46.6023 60,44.5C 61.0113,43.6634 62.1779,43.33 63.5,43.5C 65.4815,39.6454 65.8148,35.6454 64.5,31.5C 63.8333,33.8333 63.1667,36.1667 62.5,38.5C 61.8165,38.8627 61.1499,39.1961 60.5,39.5C 60.6925,35.9872 60.0259,32.6538 58.5,29.5C 57.7189,30.7287 57.2189,32.062 57,33.5C 55.5,32.3333 54,31.1667 52.5,30C 53.624,29.7508 54.624,29.2508 55.5,28.5C 54.0921,27.7568 52.7588,26.9234 51.5,26C 52.8333,25 52.8333,24 51.5,23C 48.1667,22.3333 44.8333,22.3333 41.5,23C 40.5494,23.7175 40.3828,24.5509 41,25.5C 46.5113,29.1278 46.3446,30.6278 40.5,30C 40.9574,29.586 41.2907,29.086 41.5,28.5C 39.407,26.4439 38.0737,23.9439 37.5,21C 38.7588,20.0766 40.0921,19.2432 41.5,18.5C 40.624,17.7492 39.624,17.2492 38.5,17C 53.105,15.7336 60.7716,15.9003 61.5,17.5C 61.5,18.8333 61.5,20.1667 61.5,21.5C 64.7877,21.927 67.7877,21.2603 70.5,19.5C 72.905,21.3302 75.405,21.9969 78,21.5C 78.4186,22.6721 79.0853,23.6721 80,24.5C 80.8299,30.1959 80.6632,35.8625 79.5,41.5C 78.7193,40.2634 77.7193,39.2634 76.5,38.5C 74.7137,21.4455 73.7137,21.7789 73.5,39.5 Z M 73.5,17.5 C 75.2884,16.3775 77.2884,16.2109 79.5,17C 79,17.5 78.5,18 78,18.5C 76.4361,18.0879 74.9361,17.7546 73.5,17.5 Z M 108.5,21.5 C 107.897,19.8103 106.897,18.3103 105.5,17C 107.167,16.3333 108.833,16.3333 110.5,17C 109.418,18.3297 108.751,19.8297 108.5,21.5 Z M 13.5,23.5 C 15.1765,22.8166 15.8432,21.4832 15.5,19.5C 18.3289,19.3249 19.9955,20.6582 20.5,23.5C 21.2432,22.0921 22.0766,20.7588 23,19.5C 24,20.8333 25,20.8333 26,19.5C 26.6667,23.1667 26.6667,26.8333 26,30.5C 23.355,29.2916 22.1884,30.2916 22.5,33.5C 23.2743,35.6224 23.441,37.6224 23,39.5C 24,40.8333 25,40.8333 26,39.5C 26.6667,42.5 26.6667,45.5 26,48.5C 25.8142,46.0995 25.3142,43.7662 24.5,41.5C 23.6949,44.3044 23.0283,47.1377 22.5,50C 23.0069,52.3413 24.1735,52.8413 26,51.5C 26.6667,53.5 26.6667,55.5 26,57.5C 24.4555,56.1787 23.2888,56.5121 22.5,58.5C 22.3678,61.7786 22.5344,65.1119 23,68.5C 16.2753,69.7635 16.1086,70.9301 22.5,72C 20.1667,72.6667 17.8333,72.6667 15.5,72C 16.5504,69.4968 15.5504,67.9968 12.5,67.5C 11.8333,68.1667 11.1667,68.8333 10.5,69.5C 10.5295,53.4393 10.1962,37.4393 9.5,21.5C 10.6888,20.5713 12.0222,20.238 13.5,20.5C 13.5,21.5 13.5,22.5 13.5,23.5 Z M 108.5,21.5 C 109.265,38.2975 109.599,55.1308 109.5,72C 107.167,72.6667 104.833,72.6667 102.5,72C 104.531,71.3678 106.198,70.2012 107.5,68.5C 103.965,67.779 100.465,68.1123 97,69.5C 96.6667,68.5 96.3333,67.5 96,66.5C 95.6604,52.4508 95.4938,38.4508 95.5,24.5C 95.6667,23.1667 95.8333,21.8333 96,20.5C 98.1953,21.595 100.362,22.595 102.5,23.5C 102.835,21.9974 102.835,20.664 102.5,19.5C 104.824,19.8773 105.491,20.8773 104.5,22.5C 106.463,25.1939 107.797,24.8606 108.5,21.5 Z M 60.5,39.5 C 60.1788,41.0481 59.1788,41.7148 57.5,41.5C 57.6621,43.5273 57.4955,45.5273 57,47.5C 56.3333,44.8333 56.3333,42.1667 57,39.5C 58.1455,40.6843 59.3121,40.6843 60.5,39.5 Z M 73.5,39.5 C 75.7596,41.6503 78.0929,43.8169 80.5,46C 79.1772,46.8159 78.5106,47.9826 78.5,49.5C 77.1667,48.1667 75.8333,48.1667 74.5,49.5C 74.4894,47.9826 73.8228,46.8159 72.5,46C 73.4231,43.9592 73.7564,41.7925 73.5,39.5 Z M 74.5,49.5 C 75.9932,52.591 75.3265,53.091 72.5,51C 73.0442,50.2828 73.7109,49.7828 74.5,49.5 Z M 79.5,50.5 C 81.1439,50.7135 82.6439,50.3802 84,49.5C 84.6667,50.5 84.6667,51.5 84,52.5C 83,51.1667 82,51.1667 81,52.5C 80.2828,51.9558 79.7828,51.2891 79.5,50.5 Z M 34.5,50.5 C 35.2891,50.7828 35.9558,51.2828 36.5,52C 35.184,52.5281 34.5173,52.0281 34.5,50.5 Z M 79.5,53.5 C 82.1003,55.2441 81.9336,56.5775 79,57.5C 78.4209,56.0715 78.5876,54.7382 79.5,53.5 Z M 83.5,60.5 C 84.6129,61.9464 84.7796,63.6131 84,65.5C 83.2496,64.8742 82.4162,64.3742 81.5,64C 82.9733,63.2904 83.6399,62.1238 83.5,60.5 Z M 67.5,63.5 C 68.209,62.596 69.209,62.2627 70.5,62.5C 70.5,63.8333 70.5,65.1667 70.5,66.5C 69.448,66.6495 68.448,66.4828 67.5,66C 68.7736,65.0228 68.7736,64.1894 67.5,63.5 Z M 64.5,63.5 C 64.4142,64.4959 64.7476,65.3292 65.5,66C 62.0331,66.3089 61.6998,65.4756 64.5,63.5 Z M 78.5,63.5 C 79.2891,63.7828 79.9558,64.2828 80.5,65C 80.3238,66.6916 79.8238,68.1916 79,69.5C 78.5045,67.5273 78.3379,65.5273 78.5,63.5 Z M 76.5,70.5 C 77.4734,70.9867 78.4734,71.4867 79.5,72C 77.8425,72.7252 76.8425,72.2252 76.5,70.5 Z M 108.5,83.5 C 104.187,80.9979 104.52,80.1646 109.5,81C 108.748,81.6708 108.414,82.5041 108.5,83.5 Z M 49.5,89.5 C 56.3209,88.3454 63.3209,88.1787 70.5,89C 63.9191,89.1871 57.4191,89.6871 51,90.5C 50.6174,89.944 50.1174,89.6107 49.5,89.5 Z"/></g>
<g><path style="opacity:0.004" fill="#fefffe" d="M 117.5,7.5 C 119.337,7.63945 119.67,8.30612 118.5,9.5C 117.702,9.04311 117.369,8.37644 117.5,7.5 Z"/></g>
<g><path style="opacity:0.004" fill="#fefffe" d="M 117.5,11.5 C 119.337,11.6395 119.67,12.3061 118.5,13.5C 117.702,13.0431 117.369,12.3764 117.5,11.5 Z"/></g>
<g><path style="opacity:0.005" fill="#fefffe" d="M -0.5,17.5 C 0.693482,17.9704 1.36015,18.9704 1.5,20.5C 1.36015,22.0296 0.693482,23.0296 -0.5,23.5C -0.5,21.5 -0.5,19.5 -0.5,17.5 Z"/></g>
<g><path style="opacity:0.004" fill="#fefffe" d="M 43.5,17.5 C 48.2137,17.1734 52.8804,17.5067 57.5,18.5C 53.9561,21.4736 49.9561,22.1403 45.5,20.5C 44.3881,19.7348 43.7214,18.7348 43.5,17.5 Z"/></g>
<g><path style="opacity:0.004" fill="#fefffe" d="M 23.5,21.5 C 25.337,21.6395 25.6704,22.3061 24.5,23.5C 23.7025,23.0431 23.3691,22.3764 23.5,21.5 Z"/></g>
<g><path style="opacity:0.004" fill="#fefffe" d="M 13.5,23.5 C 13.8134,26.2469 13.48,28.9135 12.5,31.5C 12.1667,30.1667 11.8333,28.8333 11.5,27.5C 11.5854,25.6672 12.2521,24.3339 13.5,23.5 Z"/></g>
<g><path style="opacity:0.004" fill="#fefffe" d="M 59.5,23.5 C 61.337,23.6395 61.6704,24.3061 60.5,25.5C 59.7025,25.0431 59.3691,24.3764 59.5,23.5 Z"/></g>
<g><path style="opacity:0.004" fill="#fefffe" d="M 97.5,23.5 C 98.8117,25.7432 99.4783,28.4098 99.5,31.5C 99.1667,34.1667 98.8333,36.8333 98.5,39.5C 97.5052,34.2079 97.1718,28.8746 97.5,23.5 Z"/></g>
<g><path style="opacity:0.004" fill="#fefffe" d="M 17.5,25.5 C 18.6935,25.9704 19.3601,26.9704 19.5,28.5C 19.1667,29.5 18.8333,30.5 18.5,31.5C 17.5344,29.604 17.2011,27.604 17.5,25.5 Z"/></g>
<g><path style="opacity:0.004" fill="#fefffe" d="M 23.5,25.5 C 25.337,25.6395 25.6704,26.3061 24.5,27.5C 23.7025,27.0431 23.3691,26.3764 23.5,25.5 Z"/></g>
<g><path style="opacity:0.004" fill="#fefffe" d="M 67.5,29.5 C 68.7479,30.3339 69.4146,31.6672 69.5,33.5C 69.1667,34.8333 68.8333,36.1667 68.5,37.5C 67.52,34.9135 67.1866,32.2469 67.5,29.5 Z"/></g>
<g><path style="opacity:0.004" fill="#fefffe" d="M 101.5,29.5 C 103.604,29.2011 105.604,29.5344 107.5,30.5C 106.5,30.8333 105.5,31.1667 104.5,31.5C 102.97,31.3601 101.97,30.6935 101.5,29.5 Z"/></g>
<g><path style="opacity:0.004" fill="#fefffe" d="M 17.5,35.5 C 19.337,35.6395 19.6704,36.3061 18.5,37.5C 17.7025,37.0431 17.3691,36.3764 17.5,35.5 Z"/></g>
<g><path style="opacity:0.004" fill="#fefffe" d="M 11.5,39.5 C 12.7943,41.0478 13.4609,43.0478 13.5,45.5C 13.1667,47.5 12.8333,49.5 12.5,51.5C 11.5091,47.5546 11.1758,43.5546 11.5,39.5 Z"/></g>
<g><path style="opacity:0.004" fill="#fefffe" d="M 17.5,39.5 C 18.6935,39.9704 19.3601,40.9704 19.5,42.5C 19.1667,43.5 18.8333,44.5 18.5,45.5C 17.5344,43.604 17.2011,41.604 17.5,39.5 Z"/></g>
<g><path style="opacity:0.004" fill="#fefffe" d="M 63.5,43.5 C 65.1765,44.1834 65.8432,45.5168 65.5,47.5C 64.0222,47.762 62.6888,47.4287 61.5,46.5C 62.6119,45.7348 63.2786,44.7348 63.5,43.5 Z"/></g>
<g><path style="opacity:0.004" fill="#fefffe" d="M 97.5,43.5 C 98.7479,44.3339 99.4146,45.6672 99.5,47.5C 99.1667,48.8333 98.8333,50.1667 98.5,51.5C 97.52,48.9135 97.1866,46.2469 97.5,43.5 Z"/></g>
<g><path style="opacity:0.004" fill="#fefffe" d="M 65.5,47.5 C 67.337,47.6395 67.6704,48.3061 66.5,49.5C 65.7025,49.0431 65.3691,48.3764 65.5,47.5 Z"/></g>
<g><path style="opacity:0.004" fill="#fefffe" d="M 11.5,53.5 C 14.6694,54.5048 15.6694,56.5048 14.5,59.5C 12.4228,58.0124 11.4228,56.0124 11.5,53.5 Z"/></g>
<g><path style="opacity:0.004" fill="#fefffe" d="M 17.5,53.5 C 18.5862,53.62 19.2528,54.2867 19.5,55.5C 19.1667,56.1667 18.8333,56.8333 18.5,57.5C 17.5713,56.3112 17.238,54.9778 17.5,53.5 Z"/></g>
<g><path style="opacity:0.004" fill="#fefffe" d="M 23.5,53.5 C 25.337,53.6395 25.6704,54.3061 24.5,55.5C 23.7025,55.0431 23.3691,54.3764 23.5,53.5 Z"/></g>
<g><path style="opacity:0.004" fill="#fefffe" d="M 97.5,53.5 C 98.6935,53.9704 99.3601,54.9704 99.5,56.5C 99.1667,57.5 98.8333,58.5 98.5,59.5C 97.5344,57.604 97.2011,55.604 97.5,53.5 Z"/></g>
<g><path style="opacity:0.004" fill="#fefffe" d="M 17.5,59.5 C 18.5862,59.62 19.2528,60.2867 19.5,61.5C 19.1667,62.1667 18.8333,62.8333 18.5,63.5C 17.5713,62.3112 17.238,60.9778 17.5,59.5 Z"/></g>
<g><path style="opacity:0.004" fill="#fefffe" d="M -0.5,71.5 C 2.16667,72.1667 2.16667,72.8333 -0.5,73.5C -0.5,72.8333 -0.5,72.1667 -0.5,71.5 Z"/></g>
<g><path style="opacity:0.004" fill="#fefffe" d="M -0.5,85.5 C 2.16667,86.1667 2.16667,86.8333 -0.5,87.5C -0.5,86.8333 -0.5,86.1667 -0.5,85.5 Z"/></g>
<g><path style="opacity:0.004" fill="#fefffe" d="M 13.5,85.5 C 15.337,85.6395 15.6704,86.3061 14.5,87.5C 13.7025,87.0431 13.3691,86.3764 13.5,85.5 Z"/></g>
<g><path style="opacity:0.004" fill="#fefffe" d="M 19.5,85.5 C 21.337,85.6395 21.6704,86.3061 20.5,87.5C 19.7025,87.0431 19.3691,86.3764 19.5,85.5 Z"/></g>
<g><path style="opacity:0.004" fill="#fefffe" d="M 109.5,85.5 C 111.337,85.6395 111.67,86.3061 110.5,87.5C 109.702,87.0431 109.369,86.3764 109.5,85.5 Z"/></g>
<g><path style="opacity:0.006" fill="#fefffe" d="M 98.5,95.5 C 97.1667,95.5 95.8333,95.5 94.5,95.5C 94.8333,94.1667 95.1667,92.8333 95.5,91.5C 97.484,90.8443 99.484,90.1776 101.5,89.5C 102.167,89.8333 102.833,90.1667 103.5,90.5C 101.156,91.5509 99.4889,93.2176 98.5,95.5 Z"/></g>
<g><path style="opacity:0.004" fill="#fefffe" d="M 103.5,95.5 C 102.833,95.5 102.167,95.5 101.5,95.5C 102.167,92.8333 102.833,92.8333 103.5,95.5 Z"/></g>
</svg>
