<?xml version="1.0" encoding="UTF-8"?>
<!DOCTYPE svg PUBLIC "-//W3C//DTD SVG 1.1//EN" "http://www.w3.org/Graphics/SVG/1.1/DTD/svg11.dtd">
<svg xmlns="http://www.w3.org/2000/svg" version="1.1" width="126px" height="126px" style="shape-rendering:geometricPrecision; text-rendering:geometricPrecision; image-rendering:optimizeQuality; fill-rule:evenodd; clip-rule:evenodd" xmlns:xlink="http://www.w3.org/1999/xlink">
<g><path style="opacity:0.216" fill="#fefffe" d="M -0.5,-0.5 C 41.5,-0.5 83.5,-0.5 125.5,-0.5C 125.5,5.5 125.5,11.5 125.5,17.5C 123.508,17.3285 121.842,17.9951 120.5,19.5C 119.016,17.9263 117.349,16.593 115.5,15.5C 111.055,18.1233 106.555,18.1233 102,15.5C 101.5,15.8333 101,16.1667 100.5,16.5C 101.681,18.198 101.681,19.8647 100.5,21.5C 99.7492,20.624 99.2492,19.624 99,18.5C 98.1816,24.3487 98.3483,30.0154 99.5,35.5C 100.167,38.1667 100.833,38.1667 101.5,35.5C 106.839,32.7403 111.839,33.4069 116.5,37.5C 117.167,36.1667 117.833,34.8333 118.5,33.5C 120.523,35.1733 122.856,35.8399 125.5,35.5C 125.5,40.8333 125.5,46.1667 125.5,51.5C 121.989,52.7733 118.322,53.7733 114.5,54.5C 113.833,55.5 113.167,56.5 112.5,57.5C 114.957,59.3324 114.957,60.9991 112.5,62.5C 110.606,61.3989 109.939,60.0655 110.5,58.5C 107.639,58.8763 104.639,59.5429 101.5,60.5C 101.719,61.675 101.386,62.675 100.5,63.5C 99.8113,61.6619 99.4779,59.9952 99.5,58.5C 98.3526,60.7649 98.1859,63.0982 99,65.5C 100.826,64.1587 101.993,64.6587 102.5,67C 102.241,68.2613 101.574,69.2613 100.5,70C 103.079,71.6117 103.079,73.1117 100.5,74.5C 98.9843,73.1962 98.3176,73.6962 98.5,76C 98.6667,76.8333 98.8333,77.6667 99,78.5C 99.8928,77.2888 100.726,77.2888 101.5,78.5C 100.833,79.5 100.167,80.5 99.5,81.5C 102.284,83.9516 101.951,85.9516 98.5,87.5C 97.1667,86.1667 95.8333,86.1667 94.5,87.5C 93.5713,86.3112 93.238,84.9778 93.5,83.5C 92.2106,85.248 90.7106,85.5814 89,84.5C 88.2828,85.0442 87.7828,85.7109 87.5,86.5C 86.5,86.5 85.5,86.5 84.5,86.5C 84.8153,90.8004 87.1486,92.467 91.5,91.5C 93.0449,87.9986 95.2116,87.6653 98,90.5C 99.6117,87.9211 101.112,87.9211 102.5,90.5C 100.146,92.2461 99.1459,94.5794 99.5,97.5C 104.111,96.5149 108.778,95.8482 113.5,95.5C 113.5,96.8333 113.5,98.1667 113.5,99.5C 107.54,99.7406 101.873,101.074 96.5,103.5C 95.6721,102.585 94.6721,101.919 93.5,101.5C 90.6944,103.064 87.6944,103.73 84.5,103.5C 84.9202,105.674 84.9202,107.674 84.5,109.5C 82.7648,108.943 81.0982,108.61 79.5,108.5C 80.3094,106.929 80.6427,105.262 80.5,103.5C 76.4159,102.945 75.7492,103.945 78.5,106.5C 77.1117,109.079 75.6117,109.079 74,106.5C 73,110.5 72,110.5 71,106.5C 70.9326,109.047 70.0993,111.214 68.5,113C 68.9574,113.414 69.2907,113.914 69.5,114.5C 68.7261,115.711 67.8928,115.711 67,114.5C 66.8333,115 66.6667,115.5 66.5,116C 68.111,119.078 67.111,120.744 63.5,121C 64.6018,124.06 63.6018,124.893 60.5,123.5C 59.2613,123.942 58.2613,124.609 57.5,125.5C 56.8333,125.5 56.1667,125.5 55.5,125.5C 56.0236,119.856 53.6903,118.523 48.5,121.5C 47.6527,119.939 47.9861,118.439 49.5,117C 48.1667,117 46.8333,117 45.5,117C 44.3333,115.167 43.1667,113.333 42,111.5C 39.6472,113.953 40.1472,115.619 43.5,116.5C 42.5714,118.322 43.2381,119.655 45.5,120.5C 43.0018,123.191 40.8351,122.858 39,119.5C 38.3828,118.551 38.5494,117.718 39.5,117C 36.8333,115.333 36.8333,113.667 39.5,112C 38.6919,111.692 38.0253,111.192 37.5,110.5C 38.5,109.833 39.5,109.167 40.5,108.5C 36.1534,104.938 31.4868,104.605 26.5,107.5C 24.0481,107.21 21.7148,106.544 19.5,105.5C 14.8333,108.167 10.1667,108.167 5.5,105.5C 3.66634,106.754 1.66634,107.421 -0.5,107.5C -0.5,101.5 -0.5,95.5 -0.5,89.5C 1.85684,89.6633 4.19018,89.4966 6.5,89C 3.9364,86.724 4.26973,84.724 7.5,83C 6.64332,82.3109 5.97665,81.4776 5.5,80.5C 7.83555,79.7082 10.5022,79.0415 13.5,78.5C 13.6199,76.2655 13.2865,74.0989 12.5,72C 13.0069,69.6587 14.1735,69.1587 16,70.5C 16.6667,66.8333 16.6667,63.1667 16,59.5C 13.5335,60.7883 11.0335,60.7883 8.5,59.5C 5.38889,62.0487 2.38889,62.0487 -0.5,59.5C -0.5,58.8333 -0.5,58.1667 -0.5,57.5C 1.44349,56.9217 1.77682,55.9217 0.5,54.5C 3.43268,52.2619 3.09935,51.2619 -0.5,51.5C -0.5,49.5 -0.5,47.5 -0.5,45.5C 1.10127,47.9281 3.26794,49.9281 6,51.5C 6.5,51.1667 7,50.8333 7.5,50.5C 6.83333,49.8333 6.16667,49.1667 5.5,48.5C 7.17326,46.4775 7.83993,44.1441 7.5,41.5C 4.5825,41.3651 1.91583,42.0318 -0.5,43.5C -0.5,39.5 -0.5,35.5 -0.5,31.5C 4.2221,31.8482 8.88876,32.5149 13.5,33.5C 13.6633,31.1432 13.4966,28.8098 13,26.5C 11.5881,24.9354 10.4214,23.2687 9.5,21.5C 11.6188,21.5323 12.9522,20.5323 13.5,18.5C 14.4959,18.4142 15.3292,18.7476 16,19.5C 16.4828,18.552 16.6495,17.552 16.5,16.5C 18.8568,16.6633 21.1902,16.4966 23.5,16C 22.8742,15.2496 22.3742,14.4162 22,13.5C 21.6924,14.3081 21.1924,14.9747 20.5,15.5C 19.7348,14.3881 18.7348,13.7214 17.5,13.5C 11.7207,12.0103 5.7207,10.677 -0.5,9.5C -0.5,6.16667 -0.5,2.83333 -0.5,-0.5 Z M 25.5,11.5 C 28.2314,12.0271 30.8981,12.8604 33.5,14C 31.0859,15.8849 28.4192,16.5516 25.5,16C 26.4132,14.5861 26.4132,13.0861 25.5,11.5 Z M 37.5,13.5 C 40.0448,13.1505 42.0448,13.9838 43.5,16C 40.5,16.6667 37.5,16.6667 34.5,16C 36.1193,15.7645 37.1193,14.9311 37.5,13.5 Z M 52.5,13.5 C 54.3588,13.4609 55.6921,14.2942 56.5,16C 54.0551,16.9098 52.7218,16.0764 52.5,13.5 Z M 46.5,14.5 C 47.766,15.0899 49.0993,15.5899 50.5,16C 48.8333,16.6667 47.1667,16.6667 45.5,16C 46.056,15.6174 46.3893,15.1174 46.5,14.5 Z M 56.5,17.5 C 57.1174,17.6107 57.6174,17.944 58,18.5C 58.8275,22.8713 58.6609,27.2047 57.5,31.5C 56.5067,26.8804 56.1734,22.2137 56.5,17.5 Z M 74.5,17.5 C 75.1174,17.6107 75.6174,17.944 76,18.5C 76.6667,23.5 76.6667,28.5 76,33.5C 74.6033,28.2919 74.1033,22.9586 74.5,17.5 Z M 15.5,21.5 C 16.6453,25.3112 16.8119,29.3112 16,33.5C 15.7931,29.9106 15.2931,26.4106 14.5,23C 15.056,22.6174 15.3893,22.1174 15.5,21.5 Z M 99.5,35.5 C 100.167,35.5 100.833,35.5 101.5,35.5C 100.833,38.1667 100.167,38.1667 99.5,35.5 Z M 15.5,46.5 C 16.6225,48.2884 16.7891,50.2884 16,52.5C 14.7586,50.4521 14.5919,48.4521 15.5,46.5 Z M 9.5,49.5 C 12.462,49.1167 13.462,50.1167 12.5,52.5C 10.7869,52.1207 9.7869,51.1207 9.5,49.5 Z M 56.5,49.5 C 57.6491,49.7911 58.3158,50.6244 58.5,52C 58.3333,52.8333 58.1667,53.6667 58,54.5C 56.7308,53.0953 56.2308,51.4286 56.5,49.5 Z M 74.5,49.5 C 76.1171,50.5893 76.9504,52.256 77,54.5C 78.1711,55.8932 79.6711,56.7265 81.5,57C 80.8742,57.7504 80.3742,58.5838 80,59.5C 78.6012,58.7734 77.1012,58.2734 75.5,58C 75.9574,57.586 76.2907,57.086 76.5,56.5C 74.8287,54.4902 74.162,52.1569 74.5,49.5 Z M 33.5,54.5 C 31.5244,57.3002 30.6911,56.9669 31,53.5C 31.6708,54.2524 32.5041,54.5858 33.5,54.5 Z M 36.5,56.5 C 37.7562,56.4614 38.7562,56.9614 39.5,58C 38.1667,58.6667 36.8333,58.6667 35.5,58C 36.056,57.6174 36.3893,57.1174 36.5,56.5 Z M 42.5,56.5 C 45.0728,56.1485 47.4062,56.6485 49.5,58C 46.8333,58.6667 44.1667,58.6667 41.5,58C 42.056,57.6174 42.3893,57.1174 42.5,56.5 Z M 62.5,56.5 C 66.3751,56.0845 70.0418,56.5845 73.5,58C 69.5,58.6667 65.5,58.6667 61.5,58C 62.056,57.6174 62.3893,57.1174 62.5,56.5 Z M 38.5,66.5 C 39.2389,66.369 39.9056,66.5357 40.5,67C 40.3238,68.6916 39.8238,70.1916 39,71.5C 38.5065,69.8659 38.3398,68.1992 38.5,66.5 Z M 74.5,71.5 C 75.0768,70.2267 75.7435,70.2267 76.5,71.5C 76.0302,72.463 75.3635,72.463 74.5,71.5 Z M 23.5,83.5 C 22.5178,82.8592 21.5178,82.1925 20.5,81.5C 18.1819,81.543 15.8486,81.8764 13.5,82.5C 14.9676,79.7223 15.801,76.7223 16,73.5C 16.4966,75.8098 16.6633,78.1432 16.5,80.5C 18.8568,80.6633 21.1902,80.4966 23.5,80C 24.1258,79.2496 24.6258,78.4162 25,77.5C 27.5694,81.2076 28.9028,85.2076 29,89.5C 27.1987,84.3768 25.1987,84.3768 23,89.5C 21.0921,87.0935 19.0921,87.0935 17,89.5C 15.3925,89.0261 15.2258,88.3594 16.5,87.5C 19.1381,86.4174 21.4714,85.0841 23.5,83.5 Z M 28.5,75.5 C 29.0768,74.2267 29.7435,74.2267 30.5,75.5C 30.0302,76.463 29.3635,76.463 28.5,75.5 Z M 53.5,75.5 C 55.9664,74.3659 58.633,74.1993 61.5,75C 58.9543,76.8116 56.2877,76.9783 53.5,75.5 Z M 91.5,79.5 C 90.8333,79.5 90.1667,79.5 89.5,79.5C 89.638,75.7139 90.3047,75.7139 91.5,79.5 Z M 91.5,79.5 C 96.5967,79.7868 97.2633,81.1201 93.5,83.5C 93.5,82.1667 92.8333,81.5 91.5,81.5C 91.5,80.8333 91.5,80.1667 91.5,79.5 Z M 13.5,82.5 C 12.3157,83.6879 12.3157,84.8545 13.5,86C 12.2068,86.49 10.8734,86.6567 9.5,86.5C 10.6843,85.3121 10.6843,84.1455 9.5,83C 10.7932,82.51 12.1266,82.3433 13.5,82.5 Z M 30.5,82.5 C 32.0281,82.5173 32.5281,83.184 32,84.5C 31.2828,83.9558 30.7828,83.2891 30.5,82.5 Z M 50.5,84.5 C 55.696,84.5649 55.696,85.2316 50.5,86.5C 49.537,86.0302 49.537,85.3635 50.5,84.5 Z M 58.5,85.5 C 60.7949,84.0719 62.7949,84.5719 64.5,87C 62.6498,86.4052 60.6498,85.9052 58.5,85.5 Z M 80.5,90.5 C 82.6559,90.8718 82.6559,91.8718 80.5,93.5C 79.4376,92.5754 79.4376,91.5754 80.5,90.5 Z M 91.5,91.5 C 93.3715,92.3589 95.0382,92.6922 96.5,92.5C 94.6031,96.061 92.9364,95.7276 91.5,91.5 Z M 87.5,95.5 C 89.337,95.6395 89.6704,96.3061 88.5,97.5C 87.7025,97.0431 87.3691,96.3764 87.5,95.5 Z M 57.5,105.5 C 60.3771,107.846 60.0437,108.679 56.5,108C 57.2524,107.329 57.5858,106.496 57.5,105.5 Z"/></g>
<g><path style="opacity:0.005" fill="#fefffe" d="M 13.5,18.5 C 11.368,18.5544 10.0347,19.5544 9.5,21.5C 7.96847,20.3226 6.46847,18.9893 5,17.5C 4.5,15.3333 5.33333,14.5 7.5,15C 8.04651,15.9246 8.71317,16.7579 9.5,17.5C 9.83333,16.1667 10.1667,14.8333 10.5,13.5C 13.806,14.0867 14.806,15.7534 13.5,18.5 Z"/></g>
<g><path style="opacity:0.004" fill="#fefffe" d="M 17.5,13.5 C 17.3605,15.337 16.6939,15.6704 15.5,14.5C 15.9569,13.7025 16.6236,13.3691 17.5,13.5 Z"/></g>
<g><path style="opacity:0.004" fill="#fefffe" d="M 7.5,25.5 C 5.66298,25.3605 5.32964,24.6939 6.5,23.5C 7.29755,23.9569 7.63088,24.6236 7.5,25.5 Z"/></g>
<g><path style="opacity:0.004" fill="#fefffe" d="M 99.5,23.5 C 100.748,24.3339 101.415,25.6672 101.5,27.5C 101.167,28.8333 100.833,30.1667 100.5,31.5C 99.52,28.9135 99.1866,26.2469 99.5,23.5 Z"/></g>
<g><path style="opacity:0.004" fill="#fefffe" d="M 7.5,25.5 C 9.38411,25.7118 10.7174,26.7118 11.5,28.5C 9.21923,29.2617 7.8859,28.2617 7.5,25.5 Z"/></g>
<g><path style="opacity:0.004" fill="#fefffe" d="M 101.5,35.5 C 100.833,35.5 100.167,35.5 99.5,35.5C 100.167,32.8333 100.833,32.8333 101.5,35.5 Z"/></g>
<g><path style="opacity:0.004" fill="#fefffe" d="M 115.5,57.5 C 117.337,57.6395 117.67,58.3061 116.5,59.5C 115.702,59.0431 115.369,58.3764 115.5,57.5 Z"/></g>
<g><path style="opacity:0.004" fill="#fefffe" d="M 13.5,61.5 C 14.6935,61.9704 15.3601,62.9704 15.5,64.5C 15.1667,65.5 14.8333,66.5 14.5,67.5C 13.5344,65.604 13.2011,63.604 13.5,61.5 Z"/></g>
<g><path style="opacity:0.004" fill="#fefffe" d="M 9.5,63.5 C 12.3024,66.261 11.6358,68.261 7.5,69.5C 6.83333,69.1667 6.16667,68.8333 5.5,68.5C 7.26106,67.0834 8.5944,65.4167 9.5,63.5 Z"/></g>
<g><path style="opacity:0.004" fill="#fefffe" d="M 7.5,73.5 C 8.97782,73.238 10.3112,73.5713 11.5,74.5C 10.8333,74.8333 10.1667,75.1667 9.5,75.5C 8.28665,75.2528 7.61998,74.5862 7.5,73.5 Z"/></g>
<g><path style="opacity:0.004" fill="#fefffe" d="M 89.5,79.5 C 90.1667,79.5 90.8333,79.5 91.5,79.5C 91.5,80.1667 91.5,80.8333 91.5,81.5C 90.8333,81.5 90.1667,81.5 89.5,81.5C 89.5,80.8333 89.5,80.1667 89.5,79.5 Z"/></g>
<g><path style="opacity:0.004" fill="#fefffe" d="M 23.5,83.5 C 23.6395,81.663 24.3061,81.3296 25.5,82.5C 25.0431,83.2975 24.3764,83.6309 23.5,83.5 Z"/></g>
<g><path style="opacity:0.007" fill="#fefffe" d="M 87.5,86.5 C 90.8606,87.2032 91.1939,88.5365 88.5,90.5C 86.3576,89.5629 86.0243,88.2296 87.5,86.5 Z"/></g>
<g><path style="opacity:0.004" fill="#fefffe" d="M 125.5,95.5 C 125.5,96.1667 125.5,96.8333 125.5,97.5C 117.5,96.8333 117.5,96.1667 125.5,95.5 Z"/></g>
<g><path style="opacity:0.004" fill="#fefffe" d="M 37.5,121.5 C 39.337,121.639 39.6704,122.306 38.5,123.5C 37.7025,123.043 37.3691,122.376 37.5,121.5 Z"/></g>
<g><path style="opacity:0.004" fill="#fefffe" d="M 43.5,125.5 C 42.8333,125.5 42.1667,125.5 41.5,125.5C 42.1667,122.833 42.8333,122.833 43.5,125.5 Z"/></g>
<g><path style="opacity:0.004" fill="#fefffe" d="M 53.5,125.5 C 52.8333,125.5 52.1667,125.5 51.5,125.5C 52.1667,122.833 52.8333,122.833 53.5,125.5 Z"/></g>
<g><path style="opacity:0.004" fill="#fefffe" d="M 67.5,125.5 C 66.8333,125.5 66.1667,125.5 65.5,125.5C 66.1667,122.833 66.8333,122.833 67.5,125.5 Z"/></g>
</svg>
