<?xml version="1.0" encoding="UTF-8"?>
<!DOCTYPE svg PUBLIC "-//W3C//DTD SVG 1.1//EN" "http://www.w3.org/Graphics/SVG/1.1/DTD/svg11.dtd">
<svg xmlns="http://www.w3.org/2000/svg" version="1.1" width="124px" height="112px" style="shape-rendering:geometricPrecision; text-rendering:geometricPrecision; image-rendering:optimizeQuality; fill-rule:evenodd; clip-rule:evenodd" xmlns:xlink="http://www.w3.org/1999/xlink">
<g><path style="opacity:0.005" fill="#fefffe" d="M 11.5,-0.5 C 12.1667,-0.5 12.8333,-0.5 13.5,-0.5C 13.736,1.97319 15.0693,3.63986 17.5,4.5C 15.0868,7.37722 13.2535,7.04388 12,3.5C 11.51,2.20677 11.3433,0.873441 11.5,-0.5 Z"/></g>
<g><path style="opacity:0.005" fill="#fefffe" d="M 15.5,-0.5 C 17.1667,-0.5 18.8333,-0.5 20.5,-0.5C 21.2916,0.966905 21.2916,2.30024 20.5,3.5C 18.1419,2.84613 16.4752,1.5128 15.5,-0.5 Z"/></g>
<g><path style="opacity:0.004" fill="#fefffe" d="M 23.5,-0.5 C 24.1667,-0.5 24.8333,-0.5 25.5,-0.5C 24.8333,2.16667 24.1667,2.16667 23.5,-0.5 Z"/></g>
<g><path style="opacity:0.249" fill="#fefffe" d="M 45.5,-0.5 C 46.1667,-0.5 46.8333,-0.5 47.5,-0.5C 49.4371,3.12897 51.4371,6.79563 53.5,10.5C 52.2713,11.2811 50.938,11.7811 49.5,12C 50.4162,12.3742 51.2496,12.8742 52,13.5C 53.7337,12.7511 55.567,12.2511 57.5,12C 55.5676,10.6482 54.2343,8.81491 53.5,6.5C 54.6998,5.7084 56.0331,5.7084 57.5,6.5C 58.1217,7.62656 58.955,8.62656 60,9.5C 60.804,8.19551 61.9707,7.52884 63.5,7.5C 66.4829,8.67491 69.4829,8.67491 72.5,7.5C 74.5795,7.68578 76.0795,8.68578 77,10.5C 77.1183,8.42667 78.1183,7.09333 80,6.5C 82.5,7.33333 83,8.83333 81.5,11C 80.552,11.4828 79.552,11.6495 78.5,11.5C 78.5,12.5 78.5,13.5 78.5,14.5C 80.9288,14.415 82.9288,13.415 84.5,11.5C 85.5836,12.6651 86.4169,13.9984 87,15.5C 87.414,15.0426 87.914,14.7093 88.5,14.5C 87.775,12.3917 87.775,10.0583 88.5,7.5C 91.8633,10.763 92.1966,14.263 89.5,18C 92.9153,19.1433 93.2486,20.81 90.5,23C 91.98,25.5497 91.3133,27.3831 88.5,28.5C 85.3876,27.6495 85.0542,26.4828 87.5,25C 85.6987,23.6132 85.0321,22.1132 85.5,20.5C 84.3345,30.1495 84.1679,39.8161 85,49.5C 88.4545,47.3482 91.7878,47.6816 95,50.5C 97.7767,46.6097 101.61,44.2764 106.5,43.5C 110.111,44.2618 113.778,44.7618 117.5,45C 118.833,45.6667 120.167,46.3333 121.5,47C 122.833,48 122.833,49 121.5,50C 122.094,50.4643 122.761,50.631 123.5,50.5C 123.5,52.5 123.5,54.5 123.5,56.5C 122.069,56.8807 121.236,57.8807 121,59.5C 120.833,62.8333 120.667,66.1667 120.5,69.5C 120.96,74.1044 120.96,78.6044 120.5,83C 120.95,84.2853 121.617,85.452 122.5,86.5C 121.019,87.944 121.352,88.6106 123.5,88.5C 123.5,89.8333 123.5,91.1667 123.5,92.5C 122.504,92.5858 121.671,92.2524 121,91.5C 120.333,92.5 120.333,93.5 121,94.5C 121.671,93.7476 122.504,93.4142 123.5,93.5C 123.5,94.1667 123.5,94.8333 123.5,95.5C 121.659,96.4023 120.326,97.7356 119.5,99.5C 114.657,99.1165 109.991,99.7832 105.5,101.5C 101.612,100.122 97.6121,99.1216 93.5,98.5C 94.6486,95.5709 96.3153,95.0709 98.5,97C 101.5,97.6667 104.5,97.6667 107.5,97C 101.966,96.7364 96.966,95.5698 92.5,93.5C 91.6919,93.8076 91.0253,94.3076 90.5,95C 91.7112,95.8928 91.7112,96.7261 90.5,97.5C 88.9411,96.9264 87.4411,96.2598 86,95.5C 85.5304,94.4232 85.6971,93.4232 86.5,92.5C 85.448,92.3505 84.448,92.5172 83.5,93C 83.9863,95.0266 83.9863,97.1933 83.5,99.5C 82.1667,99.5 80.8333,99.5 79.5,99.5C 79.8072,97.5542 79.8072,95.8875 79.5,94.5C 78.4096,95.727 77.0762,96.5604 75.5,97C 76.9295,98.8803 76.5962,100.38 74.5,101.5C 73.3264,99.766 71.6597,98.766 69.5,98.5C 63.2475,99.899 56.9141,101.232 50.5,102.5C 53.4033,103.904 56.0699,103.571 58.5,101.5C 59.5937,102.868 59.2603,104.035 57.5,105C 54.1667,105.667 50.8333,105.667 47.5,105C 46.245,102.54 44.245,101.373 41.5,101.5C 41.2865,99.8561 41.6198,98.3561 42.5,97C 39.8896,96.8528 37.5563,96.0194 35.5,94.5C 34.913,95.2334 34.913,96.2334 35.5,97.5C 33.1561,96.3284 30.8228,96.3284 28.5,97.5C 28.0604,96.302 27.727,95.1353 27.5,94C 26.1696,94.0772 24.8363,94.5772 23.5,95.5C 21.9644,94.7515 20.6311,93.7515 19.5,92.5C 18.8524,94.1492 17.8524,95.4825 16.5,96.5C 14.8651,95.6698 13.1984,95.5031 11.5,96C 11.0426,95.586 10.7093,95.086 10.5,94.5C 11.0973,91.9517 12.0973,89.2851 13.5,86.5C 12.5,85.1667 11.5,83.8333 10.5,82.5C 11.09,81.2011 12.09,80.3678 13.5,80C 13,79.5 12.5,79 12,78.5C 10.6124,79.5536 9.11238,79.7203 7.5,79C 6.71087,76.6349 5.5442,74.4682 4,72.5C 2.89037,74.0368 1.39037,74.7035 -0.5,74.5C -0.5,72.8333 -0.5,71.1667 -0.5,69.5C 0.847364,70.0283 2.1807,70.195 3.5,70C 1.92975,68.6032 0.596413,67.1032 -0.5,65.5C -0.5,63.5 -0.5,61.5 -0.5,59.5C 1.25605,60.5521 1.92271,62.2188 1.5,64.5C 3.44585,64.8072 5.11252,64.8072 6.5,64.5C 5.66978,62.8651 5.50312,61.1984 6,59.5C 4.45548,60.8213 3.28881,60.4879 2.5,58.5C 4.09711,57.2092 5.43044,55.7092 6.5,54C 2,47.1667 3.16667,46 10,50.5C 10.772,50.3552 11.4387,50.0219 12,49.5C 12.7886,39.3104 12.2886,29.6437 10.5,20.5C 11.4637,15.9035 13.6304,11.5702 17,7.5C 20.0159,5.82622 23.0159,4.15955 26,2.5C 27.2798,2.61348 28.1131,3.28014 28.5,4.5C 33.5,5.16667 38.5,5.83333 43.5,6.5C 38.1975,7.32947 32.8642,7.82947 27.5,8C 30.5252,8.3607 33.5252,8.8607 36.5,9.5C 39.1147,8.73078 41.7814,8.39745 44.5,8.5C 44.33,7.17793 44.6634,6.01127 45.5,5C 41.6491,3.19349 41.6491,1.36016 45.5,-0.5 Z M 20.5,7.5 C 22.1042,8.28696 22.7709,9.6203 22.5,11.5C 21.5,11.5 20.5,11.5 19.5,11.5C 19.756,13.9124 18.756,15.5791 16.5,16.5C 16.4455,15.4699 16.1122,14.3033 15.5,13C 17.7658,11.5736 19.4324,9.74022 20.5,7.5 Z M 23.5,12.5 C 24.7733,13.0768 24.7733,13.7435 23.5,14.5C 22.537,14.0302 22.537,13.3635 23.5,12.5 Z M 14.5,20.5 C 15.1174,20.6107 15.6174,20.944 16,21.5C 16.6667,24.5 16.6667,27.5 16,30.5C 15.9886,27.3408 15.1553,24.5074 13.5,22C 14.056,21.6174 14.3893,21.1174 14.5,20.5 Z M 71.5,31.5 C 73.1038,34.4032 74.1038,37.7366 74.5,41.5C 75.3253,37.8776 75.8253,34.211 76,30.5C 76.3333,30.8333 76.6667,31.1667 77,31.5C 77.9148,37.9441 77.5815,44.2774 76,50.5C 74.7421,48.2356 73.5754,45.9023 72.5,43.5C 69.5229,46.6844 69.8562,49.351 73.5,51.5C 72.2402,52.3816 71.0736,53.3816 70,54.5C 69.5459,52.2294 68.8793,49.8961 68,47.5C 66.9148,46.7069 65.7481,46.0402 64.5,45.5C 65.0891,47.3733 64.4224,49.04 62.5,50.5C 63.8333,51.8333 63.8333,53.1667 62.5,54.5C 62.9767,55.4776 63.6433,56.3109 64.5,57C 64.1667,57.3333 63.8333,57.6667 63.5,58C 57.5092,58.4995 51.5092,58.6662 45.5,58.5C 48.0277,57.8343 50.6944,57.1676 53.5,56.5C 51.7531,54.41 49.7531,52.7433 47.5,51.5C 47.8948,54.5225 46.8948,55.5225 44.5,54.5C 43.0186,55.4803 41.6853,56.647 40.5,58C 38.8214,58.3947 37.1547,58.228 35.5,57.5C 34.2867,57.7472 33.62,58.4138 33.5,59.5C 32.6236,59.3691 31.9569,59.7025 31.5,60.5C 32.5063,61.3957 32.5063,62.0623 31.5,62.5C 30.7132,61.7579 30.0465,60.9246 29.5,60C 31.4705,57.8568 32.8038,55.3568 33.5,52.5C 32.7174,50.7118 31.3841,49.7118 29.5,49.5C 29.0805,47.9064 28.4138,46.4064 27.5,45C 27.6327,40.2324 28.2994,35.399 29.5,30.5C 28.3803,28.4038 26.8803,28.0705 25,29.5C 24.0644,26.4305 24.8977,25.7639 27.5,27.5C 29.5689,27.1758 29.9023,26.3425 28.5,25C 33.1548,24.5008 37.8215,24.3342 42.5,24.5C 42.4735,31.4072 42.4735,38.0739 42.5,44.5C 43.4363,45.9744 44.7697,46.9744 46.5,47.5C 46.9396,46.302 47.273,45.1353 47.5,44C 48.8193,43.805 50.1526,43.9717 51.5,44.5C 50.8466,45.8068 50.1799,47.1401 49.5,48.5C 50.6888,49.4287 52.0222,49.762 53.5,49.5C 53.3691,48.6236 53.7025,47.9569 54.5,47.5C 56.7073,49.3096 59.0407,49.643 61.5,48.5C 60.5,47.8333 59.5,47.1667 58.5,46.5C 62.7566,42.8251 62.0899,40.3251 56.5,39C 57.7932,38.51 59.1266,38.3433 60.5,38.5C 60.3359,35.8127 60.5026,33.146 61,30.5C 61.1786,33.5535 61.6786,36.5535 62.5,39.5C 65.3527,37.9755 66.3527,35.8088 65.5,33C 68.0176,31.1899 68.0176,29.3566 65.5,27.5C 64.5222,27.189 63.8555,26.5223 63.5,25.5C 67.1097,23.1145 70.7763,23.1145 74.5,25.5C 76.366,24.4372 76.866,25.1039 76,27.5C 74.8869,28.7111 73.7202,28.7111 72.5,27.5C 71.5713,28.6888 71.238,30.0222 71.5,31.5 Z M 46.5,36.5 C 49.1247,37.4657 49.1247,38.4657 46.5,39.5C 45.913,38.7666 45.913,37.7666 46.5,36.5 Z M 51.5,44.5 C 53.4024,42.1978 55.7358,41.5312 58.5,42.5C 58.1667,43.5 57.5,44.1667 56.5,44.5C 54.8716,43.4647 53.205,43.4647 51.5,44.5 Z M 29.5,49.5 C 31.0781,51.3747 30.7448,52.7081 28.5,53.5C 28.4606,52.4168 28.1272,51.4168 27.5,50.5C 27.9569,49.7025 28.6236,49.3691 29.5,49.5 Z M 28.5,53.5 C 28.4827,55.0281 27.816,55.5281 26.5,55C 27.0442,54.2828 27.7109,53.7828 28.5,53.5 Z M 67.5,55.5 C 68.2674,56.172 68.9341,57.0053 69.5,58C 67.9387,58.1881 67.272,57.3547 67.5,55.5 Z M 33.5,59.5 C 35.1788,59.2852 36.1788,59.9519 36.5,61.5C 35.2905,61.0679 34.2905,60.4013 33.5,59.5 Z M 112.5,63.5 C 113.28,69.0209 113.614,74.5209 113.5,80C 113.167,80.5 112.833,81 112.5,81.5C 110.293,79.6904 107.959,79.357 105.5,80.5C 108.597,81.1945 108.931,82.1945 106.5,83.5C 105.186,82.6872 104.019,81.6872 103,80.5C 102.333,74.8333 102.333,69.1667 103,63.5C 104.552,62.0339 106.386,61.0339 108.5,60.5C 108.554,61.5301 108.888,62.6967 109.5,64C 110.577,64.4696 111.577,64.3029 112.5,63.5 Z M 36.5,61.5 C 37.2891,61.7828 37.9558,62.2828 38.5,63C 37.184,63.5281 36.5173,63.0281 36.5,61.5 Z M 94.5,63.5 C 94.7478,69.1599 95.0811,74.6599 95.5,80C 94.4734,80.5133 93.4734,81.0133 92.5,81.5C 91.0308,77.9316 88.8642,77.5983 86,80.5C 83.9154,79.3531 82.4154,80.0197 81.5,82.5C 82.6085,84.2141 81.9418,84.8808 79.5,84.5C 79.7852,82.712 79.4519,81.0453 78.5,79.5C 77.6143,80.325 77.281,81.325 77.5,82.5C 76.448,82.6495 75.448,82.4828 74.5,82C 74.5823,77.3745 74.5823,72.8745 74.5,68.5C 77.0485,67.7158 79.3819,66.5492 81.5,65C 85.9171,64.7725 90.2504,64.2725 94.5,63.5 Z M 21.5,65.5 C 25.0597,66.3109 25.2263,67.3109 22,68.5C 20.3167,67.8235 20.1501,66.8235 21.5,65.5 Z M 58.5,69.5 C 58.5394,70.5832 58.8728,71.5832 59.5,72.5C 59.0431,73.2975 58.3764,73.6309 57.5,73.5C 57.5774,74.7498 58.244,75.5831 59.5,76C 56.5,76.6667 53.5,76.6667 50.5,76C 54.1011,74.9748 54.1011,73.4748 50.5,71.5C 49.8152,74.3645 48.1486,75.8645 45.5,76C 46.8613,74.4157 47.528,72.5824 47.5,70.5C 50.694,70.8244 51.694,69.6578 50.5,67C 52.1667,66.3333 53.8333,66.3333 55.5,67C 53.7295,67.5354 53.3961,68.3687 54.5,69.5C 55.865,70.8069 57.1984,70.8069 58.5,69.5 Z M 58.5,69.5 C 58.5858,68.5041 58.2524,67.6708 57.5,67C 60.2272,66.1816 62.8938,66.3483 65.5,67.5C 64.6721,68.4147 63.6721,69.0814 62.5,69.5C 61.135,68.1931 59.8016,68.1931 58.5,69.5 Z M 67.5,66.5 C 71.5878,66.2184 72.0878,66.8851 69,68.5C 67.9701,68.1639 67.4701,67.4972 67.5,66.5 Z M 61.5,71.5 C 63.5911,74.7964 66.2578,76.963 69.5,78C 66.4495,78.8567 63.7828,78.19 61.5,76C 62.4132,74.5861 62.4132,73.0861 61.5,71.5 Z M 68.5,73.5 C 69.3864,72.2241 70.3864,72.2241 71.5,73.5C 70.5754,74.5624 69.5754,74.5624 68.5,73.5 Z M 38.5,82.5 C 36.302,82.8799 34.6354,82.2132 33.5,80.5C 35.8762,79.1834 37.5429,79.8501 38.5,82.5 Z M 55.5,85.5 C 57.9664,84.3659 60.633,84.1993 63.5,85C 61.8603,86.3946 60.3603,87.8946 59,89.5C 58.34,87.6763 57.1733,86.343 55.5,85.5 Z M 16.5,88.5 C 18.0847,89.0024 18.5847,90.0024 18,91.5C 16.9614,90.7562 16.4614,89.7562 16.5,88.5 Z M 48.5,88.5 C 49.7562,88.4614 50.7562,88.9614 51.5,90C 50.1667,90.6667 48.8333,90.6667 47.5,90C 48.056,89.6174 48.3893,89.1174 48.5,88.5 Z M 57.5,90.5 C 60.1368,92.1538 59.8034,92.6538 56.5,92C 57.056,91.6174 57.3893,91.1174 57.5,90.5 Z M 64.5,90.5 C 64.1575,92.2252 63.1575,92.7252 61.5,92C 62.2438,90.9614 63.2438,90.4614 64.5,90.5 Z M 86.5,92.5 C 86.8425,90.7748 87.8425,90.2748 89.5,91C 88.4734,91.5133 87.4734,92.0133 86.5,92.5 Z"/></g>
<g><path style="opacity:0.005" fill="#fefffe" d="M 52.5,-0.5 C 53.8333,-0.5 55.1667,-0.5 56.5,-0.5C 55.9447,1.72876 54.6114,3.39542 52.5,4.5C 50.0698,2.96265 50.0698,1.29598 52.5,-0.5 Z"/></g>
<g><path style="opacity:0.004" fill="#fefffe" d="M 57.5,-0.5 C 58.8333,-0.5 60.1667,-0.5 61.5,-0.5C 61.38,0.586173 60.7133,1.25284 59.5,1.5C 58.2867,1.25284 57.62,0.586173 57.5,-0.5 Z"/></g>
<g><path style="opacity:0.004" fill="#fefffe" d="M 73.5,-0.5 C 74.1667,-0.5 74.8333,-0.5 75.5,-0.5C 74.8333,2.16667 74.1667,2.16667 73.5,-0.5 Z"/></g>
<g><path style="opacity:0.004" fill="#fefffe" d="M 79.5,-0.5 C 80.1667,-0.5 80.8333,-0.5 81.5,-0.5C 81.5,0.166667 81.5,0.833333 81.5,1.5C 80.1667,1.5 79.5,0.833333 79.5,-0.5 Z"/></g>
<g><path style="opacity:0.004" fill="#fefffe" d="M 81.5,1.5 C 83.0783,2.06563 84.4116,3.06563 85.5,4.5C 84.3112,5.42869 82.9778,5.76202 81.5,5.5C 81.5,4.16667 81.5,2.83333 81.5,1.5 Z"/></g>
<g><path style="opacity:0.005" fill="#fefffe" d="M 57.5,6.5 C 56.6061,2.27685 57.9394,1.61019 61.5,4.5C 60.4231,5.70512 59.0898,6.37178 57.5,6.5 Z"/></g>
<g><path style="opacity:0.004" fill="#fefffe" d="M 67.5,3.5 C 68.9778,3.23798 70.3112,3.57131 71.5,4.5C 70.8333,4.83333 70.1667,5.16667 69.5,5.5C 68.2867,5.25284 67.62,4.58617 67.5,3.5 Z"/></g>
<g><path style="opacity:0.004" fill="#fefffe" d="M 75.5,3.5 C 77.337,3.63945 77.6704,4.30612 76.5,5.5C 75.7025,5.04311 75.3691,4.37644 75.5,3.5 Z"/></g>
<g><path style="opacity:0.004" fill="#fefffe" d="M 11.5,7.5 C 13.337,7.63945 13.6704,8.30612 12.5,9.5C 11.7025,9.04311 11.3691,8.37644 11.5,7.5 Z"/></g>
<g><path style="opacity:0.004" fill="#fefffe" d="M 33.5,25.5 C 35.337,25.6395 35.6704,26.3061 34.5,27.5C 33.7025,27.0431 33.3691,26.3764 33.5,25.5 Z"/></g>
<g><path style="opacity:0.004" fill="#fefffe" d="M 65.5,27.5 C 65.6395,25.663 66.3061,25.3296 67.5,26.5C 67.0431,27.2975 66.3764,27.6309 65.5,27.5 Z"/></g>
<g><path style="opacity:0.004" fill="#fefffe" d="M 89.5,29.5 C 91.337,29.6395 91.6704,30.3061 90.5,31.5C 89.7025,31.0431 89.3691,30.3764 89.5,29.5 Z"/></g>
<g><path style="opacity:0.004" fill="#fefffe" d="M 71.5,31.5 C 71.3605,33.337 70.6939,33.6704 69.5,32.5C 69.9569,31.7025 70.6236,31.3691 71.5,31.5 Z"/></g>
<g><path style="opacity:0.004" fill="#fefffe" d="M 123.5,33.5 C 123.5,34.1667 123.5,34.8333 123.5,35.5C 115.5,34.8333 115.5,34.1667 123.5,33.5 Z"/></g>
<g><path style="opacity:0.004" fill="#fefffe" d="M 67.5,37.5 C 69.337,37.6395 69.6704,38.3061 68.5,39.5C 67.7025,39.0431 67.3691,38.3764 67.5,37.5 Z"/></g>
<g><path style="opacity:0.004" fill="#fefffe" d="M 101.5,37.5 C 103.5,37.5 105.5,37.5 107.5,37.5C 107.5,38.8333 107.5,40.1667 107.5,41.5C 104.446,41.646 102.446,40.3126 101.5,37.5 Z"/></g>
<g><path style="opacity:0.004" fill="#fefffe" d="M 91.5,41.5 C 93.337,41.6395 93.6704,42.3061 92.5,43.5C 91.7025,43.0431 91.3691,42.3764 91.5,41.5 Z"/></g>
<g><path style="opacity:0.006" fill="#fefffe" d="M 39.5,50.5 C 38.2825,49.8386 36.9492,49.1719 35.5,48.5C 37.1083,47.6816 38.7749,47.0149 40.5,46.5C 43.1939,48.4635 42.8606,49.7968 39.5,50.5 Z"/></g>
<g><path style="opacity:0.004" fill="#fefffe" d="M -0.5,49.5 C 2.16667,50.1667 2.16667,50.8333 -0.5,51.5C -0.5,50.8333 -0.5,50.1667 -0.5,49.5 Z"/></g>
<g><path style="opacity:0.004" fill="#fefffe" d="M 47.5,51.5 C 44.7147,51.933 42.3813,53.2663 40.5,55.5C 39.1667,54.1667 37.8333,54.1667 36.5,55.5C 35.1548,52.5308 36.1548,50.8641 39.5,50.5C 39.7828,51.2891 40.2828,51.9558 41,52.5C 43.1046,49.2398 45.2713,48.9064 47.5,51.5 Z"/></g>
<g><path style="opacity:0.004" fill="#fefffe" d="M 53.5,49.5 C 56.1664,51.8515 58.8331,54.1848 61.5,56.5C 59.604,57.4656 57.604,57.7989 55.5,57.5C 54.8333,54.8333 54.1667,52.1667 53.5,49.5 Z"/></g>
<g><path style="opacity:0.004" fill="#fefffe" d="M 59.5,51.5 C 61.337,51.6395 61.6704,52.3061 60.5,53.5C 59.7025,53.0431 59.3691,52.3764 59.5,51.5 Z"/></g>
<g><path style="opacity:0.004" fill="#fefffe" d="M 1.5,53.5 C 3.33702,53.6395 3.67036,54.3061 2.5,55.5C 1.70245,55.0431 1.36912,54.3764 1.5,53.5 Z"/></g>
<g><path style="opacity:0.004" fill="#fefffe" d="M 57.5,73.5 C 55.663,73.3605 55.3296,72.6939 56.5,71.5C 57.2975,71.9569 57.6309,72.6236 57.5,73.5 Z"/></g>
<g><path style="opacity:0.005" fill="#fefffe" d="M -0.5,80.5 C -0.5,79.1667 -0.5,77.8333 -0.5,76.5C 3.3937,74.8946 4.22703,75.8946 2,79.5C 1.32924,80.2524 0.495904,80.5858 -0.5,80.5 Z"/></g>
<g><path style="opacity:0.004" fill="#fefffe" d="M 35.5,97.5 C 36.5862,97.62 37.2528,98.2867 37.5,99.5C 37.1667,100.167 36.8333,100.833 36.5,101.5C 35.5713,100.311 35.238,98.9778 35.5,97.5 Z"/></g>
<g><path style="opacity:0.004" fill="#fefffe" d="M 27.5,99.5 C 28.5862,99.62 29.2528,100.287 29.5,101.5C 29.1667,102.167 28.8333,102.833 28.5,103.5C 27.5713,102.311 27.238,100.978 27.5,99.5 Z"/></g>
<g><path style="opacity:0.004" fill="#fefffe" d="M 67.5,99.5 C 68.9778,99.238 70.3112,99.5713 71.5,100.5C 70.8333,100.833 70.1667,101.167 69.5,101.5C 68.2867,101.253 67.62,100.586 67.5,99.5 Z"/></g>
<g><path style="opacity:0.004" fill="#fefffe" d="M 119.5,99.5 C 120.833,99.5 122.167,99.5 123.5,99.5C 123.5,100.167 123.5,100.833 123.5,101.5C 121.517,101.843 120.183,101.176 119.5,99.5 Z"/></g>
<g><path style="opacity:0.005" fill="#fefffe" d="M 61.5,101.5 C 66.0143,103.464 66.3477,105.797 62.5,108.5C 61.5,108.167 60.8333,107.5 60.5,106.5C 61.3094,104.929 61.6427,103.262 61.5,101.5 Z"/></g>
<g><path style="opacity:0.004" fill="#fefffe" d="M 91.5,101.5 C 96.5018,101.522 96.8352,102.855 92.5,105.5C 91.5713,104.311 91.238,102.978 91.5,101.5 Z"/></g>
<g><path style="opacity:0.004" fill="#fefffe" d="M 43.5,105.5 C 42.8333,105.5 42.1667,105.5 41.5,105.5C 42.1667,102.833 42.8333,102.833 43.5,105.5 Z"/></g>
<g><path style="opacity:0.004" fill="#fefffe" d="M 69.5,111.5 C 68.8333,111.5 68.1667,111.5 67.5,111.5C 67.5,110.167 67.5,108.833 67.5,107.5C 78.0932,106.536 78.0932,105.536 67.5,104.5C 70.7683,103.513 74.1016,103.18 77.5,103.5C 77.628,105.655 77.128,107.655 76,109.5C 74.6047,110.43 73.1047,110.43 71.5,109.5C 70.2867,109.747 69.62,110.414 69.5,111.5 Z"/></g>
<g><path style="opacity:0.004" fill="#fefffe" d="M 85.5,103.5 C 87.337,103.639 87.6704,104.306 86.5,105.5C 85.7025,105.043 85.3691,104.376 85.5,103.5 Z"/></g>
<g><path style="opacity:0.004" fill="#fefffe" d="M 99.5,103.5 C 101.604,103.201 103.604,103.534 105.5,104.5C 104.5,104.833 103.5,105.167 102.5,105.5C 100.97,105.36 99.9704,104.693 99.5,103.5 Z"/></g>
<g><path style="opacity:0.004" fill="#fefffe" d="M 107.5,103.5 C 108.978,103.238 110.311,103.571 111.5,104.5C 110.833,104.833 110.167,105.167 109.5,105.5C 108.287,105.253 107.62,104.586 107.5,103.5 Z"/></g>
<g><path style="opacity:0.004" fill="#fefffe" d="M 41.5,105.5 C 41.0296,106.693 40.0296,107.36 38.5,107.5C 37.5,107.167 36.5,106.833 35.5,106.5C 37.396,105.534 39.396,105.201 41.5,105.5 Z"/></g>
<g><path style="opacity:0.004" fill="#fefffe" d="M 43.5,105.5 C 45.337,105.639 45.6704,106.306 44.5,107.5C 43.7025,107.043 43.3691,106.376 43.5,105.5 Z"/></g>
<g><path style="opacity:0.004" fill="#fefffe" d="M 47.5,107.5 C 50.2469,107.187 52.9135,107.52 55.5,108.5C 54.1667,108.833 52.8333,109.167 51.5,109.5C 49.6672,109.415 48.3339,108.748 47.5,107.5 Z"/></g>
<g><path style="opacity:0.004" fill="#fefffe" d="M 93.5,107.5 C 96.8984,107.18 100.232,107.513 103.5,108.5C 101.833,108.833 100.167,109.167 98.5,109.5C 96.3603,109.444 94.6936,108.777 93.5,107.5 Z"/></g>
<g><path style="opacity:0.004" fill="#fefffe" d="M 107.5,111.5 C 106.833,111.5 106.167,111.5 105.5,111.5C 106.449,108.06 108.782,106.726 112.5,107.5C 114.167,107.833 115.833,108.167 117.5,108.5C 114.553,109.321 111.553,109.821 108.5,110C 107.944,110.383 107.611,110.883 107.5,111.5 Z"/></g>
</svg>
