<?xml version="1.0" encoding="UTF-8"?>
<!DOCTYPE svg PUBLIC "-//W3C//DTD SVG 1.1//EN" "http://www.w3.org/Graphics/SVG/1.1/DTD/svg11.dtd">
<svg xmlns="http://www.w3.org/2000/svg" version="1.1" width="134px" height="108px" style="shape-rendering:geometricPrecision; text-rendering:geometricPrecision; image-rendering:optimizeQuality; fill-rule:evenodd; clip-rule:evenodd" xmlns:xlink="http://www.w3.org/1999/xlink">
<g><path style="opacity:0.004" fill="#fefffe" d="M -0.5,-0.5 C 0.833333,-0.5 2.16667,-0.5 3.5,-0.5C 4.4056,1.41673 5.73894,3.0834 7.5,4.5C 4.91355,5.48002 2.24688,5.81335 -0.5,5.5C -0.5,3.5 -0.5,1.5 -0.5,-0.5 Z"/></g>
<g><path style="opacity:0.227" fill="#fefffe" d="M 45.5,-0.5 C 46.1667,-0.5 46.8333,-0.5 47.5,-0.5C 48.2905,0.40128 49.2905,1.06795 50.5,1.5C 51.1076,4.63442 52.7742,5.30109 55.5,3.5C 56.1667,4.83333 56.8333,4.83333 57.5,3.5C 64.296,4.77361 70.9626,4.77361 77.5,3.5C 78.8333,3.5 80.1667,3.5 81.5,3.5C 81.7564,5.7925 81.4231,7.95917 80.5,10C 82.8961,10.866 83.5628,10.366 82.5,8.5C 82.8793,6.7869 83.8793,5.7869 85.5,5.5C 85.5,4.83333 85.5,4.16667 85.5,3.5C 86.8333,2.83333 86.8333,2.16667 85.5,1.5C 85.5,0.833333 85.5,0.166667 85.5,-0.5C 86.1667,-0.5 86.8333,-0.5 87.5,-0.5C 88.4831,0.85027 89.8164,1.85027 91.5,2.5C 91.2907,3.08605 90.9574,3.58605 90.5,4C 97.8834,4.79852 105.217,4.63185 112.5,3.5C 113.086,3.70931 113.586,4.04265 114,4.5C 113.954,6.31261 114.12,7.97928 114.5,9.5C 115.5,9 116.5,8.5 117.5,8C 116.167,5.66667 116.833,4.66667 119.5,5C 120.833,6 120.833,7 119.5,8C 120.951,7.73739 122.284,7.90405 123.5,8.5C 123.167,9.16667 122.833,9.83333 122.5,10.5C 125.23,12.4113 128.23,13.7446 131.5,14.5C 129.668,15.2485 128.001,16.2485 126.5,17.5C 125.833,16.8333 125.167,16.1667 124.5,15.5C 124.167,16 123.833,16.5 123.5,17C 123.968,22.1269 124.135,27.2935 124,32.5C 127.099,33.7402 130.266,34.7402 133.5,35.5C 133.5,40.1667 133.5,44.8333 133.5,49.5C 130.721,50.8889 127.721,51.7222 124.5,52C 123.978,52.5613 123.645,53.228 123.5,54C 123.93,61.3378 124.263,68.6712 124.5,76C 124.646,78.1879 123.646,79.5212 121.5,80C 124.915,81.1433 125.249,82.81 122.5,85C 122.35,87.2382 122.85,89.4049 124,91.5C 122.757,93.8329 121.091,94.4996 119,93.5C 118.632,94.91 117.799,95.91 116.5,96.5C 115.167,95.1667 113.833,95.1667 112.5,96.5C 111.522,96.0233 110.689,95.3567 110,94.5C 109.329,95.2524 108.496,95.5858 107.5,95.5C 103.703,94.5761 100.37,95.7428 97.5,99C 96.2068,99.49 94.8734,99.6567 93.5,99.5C 92.6837,96.8927 91.0171,94.8927 88.5,93.5C 88.5,92.8333 88.1667,92.5 87.5,92.5C 85.9265,88.3486 83.2599,87.5153 79.5,90C 80.549,90.4922 81.549,90.3256 82.5,89.5C 83.8333,93.5 82.5,94.8333 78.5,93.5C 75.4817,95.5266 72.4817,97.5266 69.5,99.5C 66.6986,97.3209 63.532,95.6542 60,94.5C 58.0892,95.4069 56.2559,95.4069 54.5,94.5C 53.1667,95.1667 51.8333,95.8333 50.5,96.5C 48.7508,94.4686 46.7508,94.1353 44.5,95.5C 44.1667,95.1667 43.8333,94.8333 43.5,94.5C 44.3802,92.5708 45.3802,90.7374 46.5,89C 46.4301,88.2352 46.0967,87.7352 45.5,87.5C 42.4623,84.5878 42.7956,83.5878 46.5,84.5C 45.4181,82.6614 44.5847,80.6614 44,78.5C 43.586,78.9574 43.086,79.2907 42.5,79.5C 41.5,76.5 40.5,73.5 39.5,70.5C 39.7896,68.9559 40.4563,67.6226 41.5,66.5C 40.5,65.5 39.5,64.5 38.5,63.5C 34.6306,66.7045 30.2973,69.0378 25.5,70.5C 26.8333,71.1667 28.1667,71.8333 29.5,72.5C 25.5,73.8333 21.5,75.1667 17.5,76.5C 16.0787,79.0094 14.4121,81.3428 12.5,83.5C 11.1667,80.8333 9.83333,80.8333 8.5,83.5C 7.57131,82.3112 7.23798,80.9778 7.5,79.5C 4.83333,78.8333 2.16667,78.1667 -0.5,77.5C -0.5,76.1667 -0.5,74.8333 -0.5,73.5C 0.943157,72.6649 1.94316,71.3316 2.5,69.5C 3.49329,64.8804 3.82662,60.2137 3.5,55.5C 9.11429,57.6534 14.781,59.6534 20.5,61.5C 23.1667,58.8333 25.8333,58.8333 28.5,61.5C 31.3823,59.9804 34.3823,58.6471 37.5,57.5C 38.6473,57.8178 39.4806,58.4844 40,59.5C 41.0793,57.6063 42.4126,57.273 44,58.5C 44.6667,54.5 44.6667,50.5 44,46.5C 43.5034,48.8098 43.3367,51.1432 43.5,53.5C 42.1667,53.5 40.8333,53.5 39.5,53.5C 39.838,50.8431 39.1713,48.5098 37.5,46.5C 38.3636,44.8035 39.6969,43.6368 41.5,43C 39.5,42.3333 37.5,42.3333 35.5,43C 36.2075,45.6915 35.0408,47.5248 32,48.5C 30.7202,48.3865 29.8869,47.7199 29.5,46.5C 30.6053,45.1076 31.9386,43.941 33.5,43C 31.5,42.3333 29.5,42.3333 27.5,43C 28.6667,45.8333 27.8333,46.6667 25,45.5C 24.3109,46.3567 23.4776,47.0233 22.5,47.5C 20.8901,46.4478 19.2234,46.4478 17.5,47.5C 16.2867,47.2528 15.62,46.5862 15.5,45.5C 13.6398,49.3509 11.8065,49.3509 10,45.5C 9.01968,46.9814 7.85301,48.3147 6.5,49.5C 5.67009,43.8624 5.17009,38.1958 5,32.5C 3.9609,31.2899 2.79423,30.2899 1.5,29.5C 1.3404,27.847 0.673734,26.5137 -0.5,25.5C -0.5,23.8333 -0.5,22.1667 -0.5,20.5C 1.59287,21.9726 3.25953,21.4726 4.5,19C 1.92106,17.3883 1.92106,15.8883 4.5,14.5C 7.61243,15.3505 7.94576,16.5172 5.5,18C 10.1667,18.6667 14.8333,18.6667 19.5,18C 14.376,16.654 14.7094,15.8207 20.5,15.5C 26.2906,15.8207 26.624,16.654 21.5,18C 24.8333,18.6667 28.1667,18.6667 31.5,18C 30.062,17.7811 28.7287,17.2811 27.5,16.5C 28.5,16.1667 29.5,15.8333 30.5,15.5C 33.6007,17.3488 36.7674,18.0155 40,17.5C 41.0217,16.646 41.8551,15.646 42.5,14.5C 40.8794,13.305 39.2128,12.305 37.5,11.5C 40.7945,9.85206 44.4612,8.6854 48.5,8C 49.9597,7.18871 50.293,6.35538 49.5,5.5C 47.7244,7.44676 45.7244,7.78009 43.5,6.5C 44.325,5.61432 45.325,5.28099 46.5,5.5C 46.4828,3.43525 46.1495,1.43525 45.5,-0.5 Z M 78.5,5.5 C 79.7759,6.3864 79.7759,7.3864 78.5,8.5C 77.913,7.76662 77.913,6.76662 78.5,5.5 Z M 85.5,5.5 C 86.5,5.5 87.5,5.5 88.5,5.5C 87.7542,9.30997 86.7542,9.30997 85.5,5.5 Z M 53.5,6.5 C 54.2891,6.78281 54.9558,7.28281 55.5,8C 54.184,8.52811 53.5173,8.02811 53.5,6.5 Z M 55.5,17.5 C 56.6009,16.4017 57.9343,16.235 59.5,17C 58.2092,19.0902 58.8758,20.4236 61.5,21C 60.3333,21.5 59.5,22.3333 59,23.5C 58.5,21.6667 57.3333,20.5 55.5,20C 58.1125,18.9288 58.1125,18.0955 55.5,17.5 Z M 42.5,17.5 C 44.2252,17.8425 44.7252,18.8425 44,20.5C 42.9614,19.7562 42.4614,18.7562 42.5,17.5 Z M 71.5,27.5 C 70.5507,25.1024 69.2174,22.9357 67.5,21C 69.1012,20.7266 70.6012,20.2266 72,19.5C 72.8007,22.367 72.6341,25.0336 71.5,27.5 Z M 107.5,33.5 C 107.225,31.2417 106.225,30.9084 104.5,32.5C 103.833,30.1667 103.167,27.8333 102.5,25.5C 101.833,27.5 101.167,29.5 100.5,31.5C 98.8716,32.5353 97.205,32.5353 95.5,31.5C 95.8333,28.8333 96.1667,26.1667 96.5,23.5C 97.675,23.719 98.675,23.3857 99.5,22.5C 97.604,21.5344 95.604,21.2011 93.5,21.5C 93.6495,22.552 93.4828,23.552 93,24.5C 92.3333,22.8333 92.3333,21.1667 93,19.5C 97.7488,20.3052 102.582,20.8052 107.5,21C 108.167,21.6667 108.833,22.3333 109.5,23C 108.019,23.9803 106.685,25.147 105.5,26.5C 106.325,27.3857 107.325,27.719 108.5,27.5C 108.176,30.694 109.342,31.694 112,30.5C 112.483,31.448 112.649,32.448 112.5,33.5C 110.833,33.5 109.167,33.5 107.5,33.5 Z M 111.5,21.5 C 112.622,23.2884 112.789,25.2884 112,27.5C 111.25,26.8742 110.416,26.3742 109.5,26C 111.107,24.951 111.773,23.451 111.5,21.5 Z M 71.5,27.5 C 71.5,28.8333 70.8333,29.5 69.5,29.5C 69.5,28.1667 70.1667,27.5 71.5,27.5 Z M 95.5,31.5 C 95.1788,33.0481 94.1788,33.7148 92.5,33.5C 92.3379,31.4727 92.5045,29.4727 93,27.5C 93.1216,29.437 93.955,30.7703 95.5,31.5 Z M 69.5,29.5 C 67.7032,32.3597 65.0366,33.693 61.5,33.5C 63.5274,31.1525 66.194,29.8192 69.5,29.5 Z M 73.5,34.5 C 72.5041,34.4142 71.6708,34.7476 71,35.5C 71.0773,36.7376 70.9106,37.7376 70.5,38.5C 69.1465,35.9327 69.4798,33.5994 71.5,31.5C 72.4252,32.3569 73.0919,33.3569 73.5,34.5 Z M 61.5,33.5 C 61.2786,34.7348 60.6119,35.7348 59.5,36.5C 60.3128,37.8139 61.3128,38.9805 62.5,40C 57.1902,41.7506 57.1902,43.2506 62.5,44.5C 62.0882,46.9726 63.0882,48.3059 65.5,48.5C 64.3157,49.6879 64.3157,50.8545 65.5,52C 60.2216,53.7439 60.2216,55.2439 65.5,56.5C 65.2172,57.2891 64.7172,57.9558 64,58.5C 63.1072,57.2888 62.2739,57.2888 61.5,58.5C 62.8333,59.8333 62.8333,61.1667 61.5,62.5C 62.0402,63.7481 62.7069,64.9148 63.5,66C 61.5753,65.8651 59.5753,65.6984 57.5,65.5C 57.322,69.1021 56.322,69.1021 54.5,65.5C 53.1582,68.3206 52.4916,68.1539 52.5,65C 52.6667,64.1667 52.8333,63.3333 53,62.5C 54,63.8333 55,63.8333 56,62.5C 56.7415,59.438 56.5748,56.438 55.5,53.5C 56.0796,50.6894 56.7463,48.0227 57.5,45.5C 56.6403,41.5662 56.307,37.5662 56.5,33.5C 58.1667,33.5 59.8333,33.5 61.5,33.5 Z M 100.5,34.5 C 101.077,33.2267 101.743,33.2267 102.5,34.5C 102.03,35.463 101.363,35.463 100.5,34.5 Z M 15.5,45.5 C 16.172,44.7326 17.0053,44.0659 18,43.5C 18.1881,45.0613 17.3547,45.728 15.5,45.5 Z M 83.5,49.5 C 87.2434,49.4592 87.4101,50.1259 84,51.5C 83.5357,50.9056 83.369,50.2389 83.5,49.5 Z M 69.5,51.5 C 70.7969,53.6934 70.7969,56.0268 69.5,58.5C 69.2947,56.4476 69.2947,54.1143 69.5,51.5 Z M 109.5,71.5 C 111.632,68.4324 111.965,65.0991 110.5,61.5C 109.686,63.7662 109.186,66.0995 109,68.5C 107.069,65.8953 105.236,65.8953 103.5,68.5C 103.709,69.086 104.043,69.586 104.5,70C 102.426,69.7727 100.426,69.9394 98.5,70.5C 97.913,69.7666 97.913,68.7666 98.5,67.5C 101.247,68.806 102.913,67.806 103.5,64.5C 103.043,63.7025 102.376,63.3691 101.5,63.5C 101.294,61.4508 100.461,61.1175 99,62.5C 98.3333,61.5 98.3333,60.5 99,59.5C 101.507,60.067 104.007,60.4003 106.5,60.5C 107.5,60.1667 108.167,59.5 108.5,58.5C 107.476,56.0544 105.809,54.3877 103.5,53.5C 105.583,50.9178 107.917,50.9178 110.5,53.5C 111.192,52.9747 111.692,52.3081 112,51.5C 112.831,59.1883 112.665,66.855 111.5,74.5C 110.494,74.0623 110.494,73.3957 111.5,72.5C 111.043,71.7025 110.376,71.3691 109.5,71.5 Z M 83.5,55.5 C 83.369,54.7611 83.5357,54.0944 84,53.5C 85.3333,54.8333 86.6667,54.8333 88,53.5C 88.4935,55.1341 88.6602,56.8008 88.5,58.5C 86.1432,58.6633 83.8098,58.4966 81.5,58C 82.0659,57.0053 82.7326,56.172 83.5,55.5 Z M 103.5,53.5 C 102.439,57.0937 101.105,57.2604 99.5,54C 100.793,53.51 102.127,53.3433 103.5,53.5 Z M 82.5,67.5 C 83.2506,66.4265 84.2506,66.2599 85.5,67C 84.6477,68.7284 83.6477,68.895 82.5,67.5 Z M 58.5,70.5 C 59.5426,68.1481 60.8759,67.9815 62.5,70C 61.2068,70.49 59.8734,70.6567 58.5,70.5 Z M 74.5,69.5 C 78.1232,70.4114 78.2899,71.7447 75,73.5C 74.2496,72.8742 73.4162,72.3742 72.5,72C 73.3805,71.2917 74.0472,70.4584 74.5,69.5 Z M 58.5,70.5 C 58.4827,72.0281 57.816,72.5281 56.5,72C 57.0442,71.2828 57.7109,70.7828 58.5,70.5 Z M 79.5,70.5 C 80.675,70.281 81.675,70.6143 82.5,71.5C 80.9483,72.7979 79.9483,72.4646 79.5,70.5 Z M 93.5,70.5 C 94.0431,70.56 94.3764,70.8933 94.5,71.5C 93.277,72.6139 91.9437,72.7805 90.5,72C 91.7375,71.7679 92.7375,71.2679 93.5,70.5 Z M 85.5,72.5 C 88.7171,75.8841 88.0504,77.0508 83.5,76C 84.9733,75.2904 85.6399,74.1238 85.5,72.5 Z M 114.5,83.5 C 116.106,84.3591 117.773,84.5258 119.5,84C 117.415,86.1391 115.749,85.9725 114.5,83.5 Z M 46.5,84.5 C 48.0281,84.5173 48.5281,85.184 48,86.5C 47.2828,85.9558 46.7828,85.2891 46.5,84.5 Z M 112.5,86.5 C 113.473,86.9867 114.473,87.4867 115.5,88C 113.843,88.7252 112.843,88.2252 112.5,86.5 Z M 51.5,87.5 C 53.8549,89.2462 54.0216,91.2462 52,93.5C 50.2002,91.6349 50.0336,89.6349 51.5,87.5 Z"/></g>
<g><path style="opacity:0.005" fill="#fefffe" d="M 50.5,-0.5 C 51.8333,-0.5 53.1667,-0.5 54.5,-0.5C 54.1627,2.3357 52.8293,3.00237 50.5,1.5C 50.5,0.833333 50.5,0.166667 50.5,-0.5 Z"/></g>
<g><path style="opacity:0.005" fill="#fefffe" d="M 78.5,-0.5 C 79.8333,-0.5 81.1667,-0.5 82.5,-0.5C 81.1667,3.5 79.8333,3.5 78.5,-0.5 Z"/></g>
<g><path style="opacity:0.005" fill="#fefffe" d="M 110.5,-0.5 C 111.833,-0.5 113.167,-0.5 114.5,-0.5C 113.167,3.5 111.833,3.5 110.5,-0.5 Z"/></g>
<g><path style="opacity:0.004" fill="#fefffe" d="M 115.5,-0.5 C 116.167,-0.5 116.833,-0.5 117.5,-0.5C 116.833,4.83333 116.167,4.83333 115.5,-0.5 Z"/></g>
<g><path style="opacity:0.004" fill="#fefffe" d="M 121.5,-0.5 C 122.167,-0.5 122.833,-0.5 123.5,-0.5C 122.65,1.58509 122.316,3.58509 122.5,5.5C 119.025,3.91581 118.692,1.91581 121.5,-0.5 Z"/></g>
<g><path style="opacity:0.004" fill="#fefffe" d="M 131.5,-0.5 C 132.167,-0.5 132.833,-0.5 133.5,-0.5C 133.5,0.833333 133.5,2.16667 133.5,3.5C 131.824,2.81658 131.157,1.48324 131.5,-0.5 Z"/></g>
<g><path style="opacity:0.004" fill="#fefffe" d="M 57.5,3.5 C 56.8333,3.5 56.1667,3.5 55.5,3.5C 56.1667,0.833333 56.8333,0.833333 57.5,3.5 Z"/></g>
<g><path style="opacity:0.004" fill="#fefffe" d="M 77.5,3.5 C 75.663,3.36055 75.3296,2.69388 76.5,1.5C 77.2975,1.95689 77.6309,2.62356 77.5,3.5 Z"/></g>
<g><path style="opacity:0.004" fill="#fefffe" d="M 85.5,1.5 C 85.5,2.16667 85.5,2.83333 85.5,3.5C 82.8333,2.83333 82.8333,2.16667 85.5,1.5 Z"/></g>
<g><path style="opacity:0.004" fill="#fefffe" d="M 107.5,1.5 C 109.337,1.63945 109.67,2.30612 108.5,3.5C 107.702,3.04311 107.369,2.37644 107.5,1.5 Z"/></g>
<g><path style="opacity:0.004" fill="#fefffe" d="M 35.5,11.5 C 33.663,11.3605 33.3296,10.6939 34.5,9.5C 35.2975,9.95689 35.6309,10.6236 35.5,11.5 Z"/></g>
<g><path style="opacity:0.004" fill="#fefffe" d="M 133.5,9.5 C 133.5,10.1667 133.5,10.8333 133.5,11.5C 130.833,10.8333 130.833,10.1667 133.5,9.5 Z"/></g>
<g><path style="opacity:0.004" fill="#fefffe" d="M 35.5,11.5 C 36.1667,11.5 36.8333,11.5 37.5,11.5C 36.8333,14.1667 36.1667,14.1667 35.5,11.5 Z"/></g>
<g><path style="opacity:0.004" fill="#fefffe" d="M -0.5,15.5 C 2.16667,16.1667 2.16667,16.8333 -0.5,17.5C -0.5,16.8333 -0.5,16.1667 -0.5,15.5 Z"/></g>
<g><path style="opacity:0.004" fill="#fefffe" d="M 9.5,15.5 C 11.337,15.6395 11.6704,16.3061 10.5,17.5C 9.70245,17.0431 9.36912,16.3764 9.5,15.5 Z"/></g>
<g><path style="opacity:0.004" fill="#fefffe" d="M 101.5,21.5 C 103.337,21.6395 103.67,22.3061 102.5,23.5C 101.702,23.0431 101.369,22.3764 101.5,21.5 Z"/></g>
<g><path style="opacity:0.004" fill="#fefffe" d="M -0.5,29.5 C 0.166667,29.5 0.833333,29.5 1.5,29.5C 1.5,30.8333 0.833333,31.5 -0.5,31.5C -0.5,30.8333 -0.5,30.1667 -0.5,29.5 Z"/></g>
<g><path style="opacity:0.004" fill="#fefffe" d="M -0.5,43.5 C 2.26173,43.8859 3.26173,45.2192 2.5,47.5C 1.48224,46.8075 0.482236,46.1408 -0.5,45.5C -0.5,44.8333 -0.5,44.1667 -0.5,43.5 Z"/></g>
<g><path style="opacity:0.004" fill="#fefffe" d="M 57.5,45.5 C 58.8333,45.5 60.1667,45.5 61.5,45.5C 60.7589,50.5028 59.4256,50.5028 57.5,45.5 Z"/></g>
<g><path style="opacity:0.004" fill="#fefffe" d="M 83.5,55.5 C 85.337,55.6395 85.6704,56.3061 84.5,57.5C 83.7025,57.0431 83.3691,56.3764 83.5,55.5 Z"/></g>
<g><path style="opacity:0.004" fill="#fefffe" d="M 105.5,63.5 C 107.337,63.6395 107.67,64.3061 106.5,65.5C 105.702,65.0431 105.369,64.3764 105.5,63.5 Z"/></g>
<g><path style="opacity:0.004" fill="#fefffe" d="M 45.5,87.5 C 45.3605,89.337 44.6939,89.6704 43.5,88.5C 43.9569,87.7025 44.6236,87.3691 45.5,87.5 Z"/></g>
<g><path style="opacity:0.007" fill="#fefffe" d="M 87.5,92.5 C 88.1667,92.5 88.5,92.8333 88.5,93.5C 88.4894,95.6859 87.4894,96.5192 85.5,96C 84.1602,93.8511 84.8269,92.6845 87.5,92.5 Z"/></g>
<g><path style="opacity:0.004" fill="#fefffe" d="M 59.5,95.5 C 60.5862,95.62 61.2528,96.2867 61.5,97.5C 61.1667,98.1667 60.8333,98.8333 60.5,99.5C 59.5713,98.3112 59.238,96.9778 59.5,95.5 Z"/></g>
<g><path style="opacity:0.004" fill="#fefffe" d="M 107.5,95.5 C 107.762,96.9778 107.429,98.3112 106.5,99.5C 106.167,98.8333 105.833,98.1667 105.5,97.5C 105.747,96.2867 106.414,95.62 107.5,95.5 Z"/></g>
<g><path style="opacity:0.004" fill="#fefffe" d="M 51.5,101.5 C 53.337,101.639 53.6704,102.306 52.5,103.5C 51.7025,103.043 51.3691,102.376 51.5,101.5 Z"/></g>
<g><path style="opacity:0.004" fill="#fefffe" d="M 59.5,101.5 C 60.9778,101.238 62.3112,101.571 63.5,102.5C 62.8333,102.833 62.1667,103.167 61.5,103.5C 60.2867,103.253 59.62,102.586 59.5,101.5 Z"/></g>
<g><path style="opacity:0.004" fill="#fefffe" d="M 19.5,103.5 C 23.5546,103.176 27.5546,103.509 31.5,104.5C 29.5,104.833 27.5,105.167 25.5,105.5C 23.0478,105.461 21.0478,104.794 19.5,103.5 Z"/></g>
<g><path style="opacity:0.004" fill="#fefffe" d="M 33.5,103.5 C 35.337,103.639 35.6704,104.306 34.5,105.5C 33.7025,105.043 33.3691,104.376 33.5,103.5 Z"/></g>
<g><path style="opacity:0.004" fill="#fefffe" d="M 61.5,107.5 C 60.8333,107.5 60.1667,107.5 59.5,107.5C 60.1667,104.833 60.8333,104.833 61.5,107.5 Z"/></g>
<g><path style="opacity:0.004" fill="#fefffe" d="M 71.5,107.5 C 70.8333,107.5 70.1667,107.5 69.5,107.5C 70.1667,104.833 70.8333,104.833 71.5,107.5 Z"/></g>
</svg>
